<svg width="24" height="24" viewBox="0 0 24 24" fill="none" xmlns="http://www.w3.org/2000/svg">
<path d="M15.1459 10.0355C14.8019 10.6603 14.7834 10.8895 14.8113 11.0425L14.6638 11.0694L14.8113 11.0422C14.8127 11.05 14.8239 11.0776 14.862 11.1248C14.897 11.1681 14.9433 11.2142 14.9919 11.2578C15.0214 11.2842 15.0506 11.3088 15.0771 11.3301L20.0328 5.99157L19.6067 4.76949C18.9186 5.11818 17.7006 5.73176 17.5018 5.82273M15.1459 10.0355L17.4367 5.87855L17.4367 5.87867L17.4364 5.87916L17.4353 5.8811L17.4347 5.88216M15.1459 10.0355C15.3066 9.7451 15.8793 8.70586 16.4118 7.73937L17.124 6.44643L17.3515 6.03333L17.4146 5.91882L17.4311 5.88878L17.4347 5.88216M15.1459 10.0355L17.4347 5.88216M17.5018 5.82273C17.5016 5.8228 17.5015 5.82287 17.5013 5.82295L17.4389 5.68652L17.5021 5.82258C17.502 5.82263 17.5019 5.82268 17.5018 5.82273ZM17.5018 5.82273C17.4748 5.83534 17.4517 5.85571 17.4347 5.88216M19.6918 4.55811C19.6498 4.57941 19.6047 4.60233 19.5568 4.62658L19.7416 4.70103L19.6918 4.55811Z" stroke="#250B34" stroke-width="0.3"/>
<path d="M20.2473 3.88807L20.4951 3.92148C20.5189 3.74483 20.5841 3.31741 20.7957 2.98079C21.3519 2.10245 22.3841 1.82936 23.0863 2.27319L23.0865 2.27328C23.7869 2.71541 23.9871 3.76561 23.4293 4.64761L23.4292 4.64772C22.963 5.38579 22.1495 5.70003 21.4885 5.51183C21.3034 5.45862 20.8576 5.37823 20.3317 5.67549L19.9177 4.64855C19.9897 4.59548 20.0757 4.52764 20.1578 4.45172C20.2288 4.38613 20.3025 4.30947 20.3625 4.22646C20.4201 4.1467 20.4796 4.04128 20.4953 3.92006L20.2473 3.88807ZM20.2473 3.88807C20.2154 4.13529 19.7868 4.44032 19.6512 4.53003L23.2199 2.06187C22.3746 1.52756 21.1963 1.88044 20.5843 2.84737C20.341 3.23415 20.2713 3.71063 20.2473 3.88807ZM21.3163 5.07451L21.3167 5.07474C21.9666 5.48257 22.8203 5.19617 23.242 4.52579C23.6647 3.85697 23.5601 2.96148 22.9108 2.55226C22.2614 2.14093 21.4078 2.43194 20.985 3.10054C20.5621 3.76947 20.6667 4.66531 21.3163 5.07451Z" stroke="#250B34" stroke-width="0.5"/>
<path d="M18.2426 6.90245C18.4661 6.90245 18.6473 6.72125 18.6473 6.49773C18.6473 6.27422 18.4661 6.09302 18.2426 6.09302C18.0191 6.09302 17.8379 6.27422 17.8379 6.49773C17.8379 6.72125 18.0191 6.90245 18.2426 6.90245Z" fill="#B9E4EA"/>
<path d="M18.2426 6.90245C18.4661 6.90245 18.6473 6.72125 18.6473 6.49773C18.6473 6.27422 18.4661 6.09302 18.2426 6.09302C18.0191 6.09302 17.8379 6.27422 17.8379 6.49773C17.8379 6.72125 18.0191 6.90245 18.2426 6.90245Z" fill="#B9E4EA"/>
<path d="M17.0799 6.2168L16.8008 6.7212L16.9962 7.98917L17.3829 8.46367L17.0799 6.2168Z" fill="#250B34"/>
<path d="M9.22033 18.416H9.19441C5.92479 18.42 2.57143 19.0221 0.595703 20.3937V23.9983H19.5615V23.4122C19.5595 20.0708 14.3241 18.416 9.22033 18.416Z" fill="#250B34"/>
<path d="M7.45312 18.416V19.8192C7.45312 20.4533 8.15012 20.9679 9.15439 20.9679C10.1587 20.9679 10.8557 20.4533 10.8557 19.8192V18.416H7.45312Z" fill="#250B34"/>
<path d="M2.7832 10.5349C2.7832 5.26908 5.94049 1.73364 9.21599 1.73364C12.4915 1.73364 15.6488 5.26912 15.6488 10.5329C15.6488 13.1351 14.8387 15.0549 13.64 16.3222C12.4402 17.5907 10.8363 18.2217 9.21599 18.2217C7.59564 18.2217 5.99173 17.5912 4.79195 16.3232C3.59333 15.0564 2.7832 13.1371 2.7832 10.5349Z" stroke="#250B34" stroke-width="0.5"/>
<path d="M10.2722 15.1623C10.3143 15.1556 10.3568 15.1482 10.3992 15.1402C10.0234 15.3408 9.59339 15.4838 9.22529 15.4838C8.85794 15.4838 8.4259 15.3414 8.04701 15.1414C8.08719 15.149 8.12734 15.1559 8.16726 15.1623C8.49248 15.2144 8.85896 15.2392 9.21955 15.2392C9.58016 15.2392 9.94673 15.2143 10.2722 15.1623Z" stroke="#250B34"/>
<path d="M9.98547 12.8458C9.96354 12.8378 9.9436 12.8318 9.92167 12.8298H8.51015C8.48822 12.8318 8.46629 12.8378 8.44636 12.8458C8.31876 12.8976 8.24898 13.0292 8.30879 13.1708C8.3686 13.3123 8.64971 13.707 9.21591 13.707C9.78212 13.707 10.0632 13.3103 10.123 13.1708C10.1828 13.0292 10.1131 12.8976 9.98547 12.8458Z" fill="#250B34"/>
<path d="M5.93991 12.0184C6.48274 12.0184 6.92279 11.5632 6.92279 11.0016C6.92279 10.4401 6.48274 9.98486 5.93991 9.98486C5.39708 9.98486 4.95703 10.4401 4.95703 11.0016C4.95703 11.5632 5.39708 12.0184 5.93991 12.0184Z" fill="#0D080D"/>
<path d="M12.4946 12.0184C13.0374 12.0184 13.4775 11.5632 13.4775 11.0016C13.4775 10.4401 13.0374 9.98486 12.4946 9.98486C11.9518 9.98486 11.5117 10.4401 11.5117 11.0016C11.5117 11.5632 11.9518 12.0184 12.4946 12.0184Z" fill="#250B34"/>
<path d="M4.39986 9.39073C5.03385 8.49159 6.52511 8.46168 7.27274 9.22725C7.40233 9.36083 7.53989 9.53229 7.4422 9.72567C7.33454 9.93899 7.11325 9.9051 6.93182 9.83134C6.44736 9.63596 5.94894 9.54823 5.4266 9.6539C5.20131 9.69975 5.00793 9.79346 4.7946 9.86922C4.50752 9.96691 4.21445 9.66785 4.39986 9.39073Z" fill="#250B34"/>
<path d="M13.6555 9.86912C13.2109 9.67574 12.7604 9.56409 12.2699 9.61991C12.0466 9.64583 11.8273 9.70365 11.62 9.78539C11.4545 9.85118 11.2771 9.95684 11.1056 9.84121C10.6172 9.50428 11.4844 8.95602 11.7376 8.84637C12.2879 8.60912 12.9438 8.63105 13.4761 8.90817C13.6874 9.01783 13.9167 9.17732 14.0423 9.38665C14.1998 9.64783 13.9645 9.99472 13.6555 9.86912Z" fill="#250B34"/>
<path d="M16.8623 7.73379C16.6151 7.41879 16.5832 7.13967 16.5653 7.10179C16.2942 4.07939 14.8667 0.109983 9.26247 0.0800781H9.25449C0.19724 0.127926 2.05335 10.4751 2.05335 10.4751C2.05335 10.4751 3.07012 12.2674 3.07012 12.2315C3.03623 10.7861 3.61639 8.22622 4.02708 7.13768C4.12755 6.87156 4.31841 6.64926 4.56625 6.50966C4.81409 6.37007 5.10313 6.32208 5.38278 6.3741C6.26997 6.53559 7.68547 6.73496 9.24453 6.73496H9.27642C10.8375 6.73496 12.251 6.53559 13.1382 6.3741C13.7163 6.26844 14.2865 6.58942 14.4919 7.13768C14.9026 8.22822 15.4807 10.7861 15.4488 12.2315C15.4488 12.2634 16.2383 10.8738 16.4257 10.5469L16.4377 10.5548C16.4377 10.5548 17.5003 10.7741 18.8201 10.198C20.1579 9.61382 20.4908 8.56515 20.4908 8.56515C17.7475 8.96388 16.9939 7.90126 16.8623 7.73379Z" fill="#250B34"/>
<path d="M16.8623 7.73379C16.6151 7.41879 16.5832 7.13967 16.5653 7.10179C16.2942 4.07939 14.8667 0.109983 9.26247 0.0800781H9.25449C0.19724 0.127926 2.05335 10.4751 2.05335 10.4751C2.05335 10.4751 3.07012 12.2674 3.07012 12.2315C3.03623 10.7861 3.61639 8.22622 4.02708 7.13768C4.12755 6.87156 4.31841 6.64926 4.56625 6.50966C4.81409 6.37007 5.10313 6.32208 5.38278 6.3741C6.26997 6.53559 7.68547 6.73496 9.24453 6.73496H9.27642C10.8375 6.73496 12.251 6.53559 13.1382 6.3741C13.7163 6.26844 14.2865 6.58942 14.4919 7.13768C14.9026 8.22822 15.4807 10.7861 15.4488 12.2315C15.4488 12.2634 16.2383 10.8738 16.4257 10.5469L16.4377 10.5548C16.4377 10.5548 17.3368 10.7921 18.8201 10.198C20.0921 9.68759 20.4908 8.56515 20.4908 8.56515C17.8313 8.97186 16.9939 7.90126 16.8623 7.73379Z" fill="#250B34"/>
<path d="M17.0347 5.03275L18.1252 4.22183C18.4798 4.8914 19.1568 6.16036 19.2688 6.35401L19.2688 6.35401L19.2694 6.35506C19.2877 6.38603 19.2959 6.42163 19.2935 6.46256L19.2934 6.46349L19.2925 6.47306L19.2887 6.51048L19.2742 6.65308L19.2219 7.16706C19.1784 7.59525 19.1196 8.17303 19.0585 8.77136C18.9364 9.96819 18.8054 11.2464 18.7695 11.575C18.6903 12.2857 18.5739 12.4935 18.4532 12.6112C18.4407 12.623 18.4083 12.6407 18.3488 12.6575C18.2926 12.6734 18.2261 12.6847 18.1602 12.6926C18.1076 12.6989 18.0572 12.7027 18.0157 12.7051L17.0347 5.03275Z" stroke="#250B34" stroke-width="0.23"/>
<path d="M18.2446 6.89854C18.4681 6.89854 18.6493 6.71735 18.6493 6.49383C18.6493 6.27031 18.4681 6.08911 18.2446 6.08911C18.021 6.08911 17.8398 6.27031 17.8398 6.49383C17.8398 6.71735 18.021 6.89854 18.2446 6.89854Z" fill="#250B34"/>
<path d="M15.0233 1.98849L15.0233 1.98828C15.0768 0.929756 15.8635 0.155379 16.7251 0.200182C17.5872 0.245015 18.2899 1.09315 18.2363 2.15148L18.2363 2.152C18.2167 2.55966 18.0181 2.95303 17.9343 3.11266C17.8824 3.20997 17.8705 3.32067 17.8714 3.41503C17.8724 3.51291 17.8878 3.61449 17.9075 3.70707C17.9339 3.83073 17.9705 3.94895 18.001 4.03748L16.9871 4.69144L16.9782 4.66588L16.9749 4.65637L16.9707 4.64724C16.7211 4.10941 16.3182 3.92361 16.146 3.86295L16.1456 3.86281C15.472 3.62724 14.9773 2.87831 15.0233 1.98849ZM15.3455 2.00361L15.3455 2.00419C15.3074 2.77356 15.8227 3.47303 16.556 3.5097C17.289 3.54635 17.8718 2.90358 17.9121 2.13416L17.9121 2.13358C17.9501 1.36421 17.4349 0.664742 16.7016 0.628075C15.9686 0.591424 15.3858 1.23419 15.3455 2.00361Z" stroke="#250B34" stroke-width="0.4"/>
</svg>
