<svg width="9" height="20" viewBox="0 0 9 20" fill="none" xmlns="http://www.w3.org/2000/svg">
<path d="M7.37677 3.18293V1.93489V0.4495C7.37677 0.200282 7.1747 -0.00170898 6.92556 -0.00170898C6.67642 -0.00170898 6.47435 0.200282 6.47435 0.4495V1.48368H6.06826V0.4495C6.06826 0.200282 5.86619 -0.00170898 5.61705 -0.00170898C5.36791 -0.00170898 5.16584 0.200282 5.16584 0.4495V1.48368H4.75975V0.4495C4.75975 0.200282 4.55768 -0.00170898 4.30854 -0.00170898C4.0594 -0.00170898 3.85733 0.200282 3.85733 0.4495V1.48368H3.45081V0.4495C3.45077 0.200282 3.2487 -0.00170898 2.99956 -0.00170898C2.75038 -0.00170898 2.54835 0.200282 2.54835 0.4495V1.93489V3.18304C1.63468 3.29902 0.925781 4.08062 0.925781 5.0253V14.373C0.925781 16.4295 2.50316 18.1242 4.51155 18.3113V19.5471C4.51155 19.7963 4.71362 19.9983 4.96276 19.9983C5.2119 19.9983 5.41397 19.7963 5.41397 19.5471V18.3113C7.42236 18.1242 8.99973 16.4295 8.99973 14.373V5.02522C8.99977 4.08042 8.2906 3.29871 7.37677 3.18293ZM3.45077 2.38609H6.47431V3.16758H3.45077V2.38609ZM3.45077 4.07003H6.47431V14.2453C6.47431 15.0788 5.79623 15.7569 4.96276 15.7569C4.12901 15.7569 3.45073 15.0788 3.45073 14.2453L3.45077 4.07003ZM8.09735 14.373C8.09735 16.0565 6.72767 17.4263 5.04401 17.4263H4.88159C3.198 17.4263 1.82824 16.0566 1.82824 14.373V5.02522C1.82824 4.57976 2.13519 4.20566 2.54835 4.10046V14.2453C2.54835 15.5764 3.63143 16.6592 4.9628 16.6592C6.29389 16.6592 7.37677 15.5764 7.37677 14.2453V4.10038C7.79017 4.20538 8.09735 4.5796 8.09735 5.02522V14.373Z" fill="black"/>
</svg>
